<svg id="svg" version="1.1" viewBox="0 0 300 298.7252124645893" width="300" height="298.7252124645893" xmlns="http://www.w3.org/2000/svg"><svg xmlns="http://www.w3.org/2000/svg"><defs><clipPath id="clip-1"><rect x="0" y="0" transform="scale(0.14648,0.14651)" width="2048" height="2039" fill="none"/></clipPath></defs><g clip-path="url(#clip-1)" fill="none" fill-rule="nonzero" stroke="none" stroke-width="1" stroke-linecap="butt" stroke-linejoin="miter" stroke-miterlimit="10" stroke-dasharray="" stroke-dashoffset="0" font-family="none" font-weight="none" font-size="none" text-anchor="none" style="mix-blend-mode: normal"><path d="M0,0h299.74365c0.19922,0.35192 0.23438,0.5807 0.24463,0.99101c0.13184,4.88384 0.01172,9.79968 0.01172,14.68818l0.00146,28.57697v86.41363v132.31974l-0.00146,26.40913c0,1.55589 0.25488,7.96991 -0.09082,8.99985c-0.04248,0.12453 -0.09961,0.2095 -0.16553,0.32671h-299.74365z" fill="#fefefe"/><path d="M148.24219,127.96749c1.74609,-0.19485 3.6416,-0.05919 5.40381,-0.06168c4.29199,-0.00586 9.27539,-0.46999 13.43408,0.61811c3.36182,0.88021 6.11426,3.07779 7.86182,6.06988c2.04053,3.49446 2.60742,7.98383 1.57178,11.89158c-0.83936,3.16584 -2.5415,5.47038 -5.354,7.12443c-1.37842,0.64902 -2.74365,1.0021 -4.25244,1.20428c-3.33105,0.44831 -6.84961,0.28129 -10.2085,0.28862c-3.03662,0.00586 -6.14941,0.13625 -9.17725,-0.0923c1.51025,-0.44391 3.25195,-0.48054 4.28467,-1.86062c0.53027,-0.71055 0.63721,-2.05548 0.71924,-2.93158c0.2666,-2.84954 0.08057,-5.85071 0.07617,-8.71519c-0.00586,-3.05318 0.17871,-6.24744 -0.13037,-9.28275c-0.23291,-2.29794 -0.81006,-3.06417 -3.07617,-3.69136c-0.35889,-0.09962 -0.77197,-0.14958 -1.04736,-0.41989c-0.04102,-0.04131 -0.07031,-0.09435 -0.10547,-0.14152z" fill="#ed1c24"/><path d="M156.99023,128.49037c3.65918,0.01861 7.02246,-0.0819 10.06934,2.22703c2.87549,2.1803 4.47949,5.68398 4.96582,9.1947c0.57422,4.15065 -0.27246,8.1466 -2.79785,11.50598c-0.10547,0.12599 -0.21387,0.24906 -0.3252,0.36773c-1.65088,1.80202 -3.7251,2.69571 -6.15674,2.78214c-1.57031,0.05714 -3.29297,-0.11427 -4.47363,-1.26727c-0.69287,-0.67686 -0.95654,-1.4299 -1.11914,-2.37046c-0.44385,-2.56532 -0.18457,-5.438 -0.18018,-8.05122z" fill="#fefefe"/><path d="M131.70483,121.59567c0.5373,0.21404 2.07627,2.57616 2.60962,3.20218c-0.03296,1.3691 0.1355,2.68384 0.01245,4.06715c-0.19937,2.24461 -0.73813,4.285 -1.25786,6.4612c-0.27847,1.16604 -0.43286,2.36167 -0.72217,3.52434c-0.39888,1.60365 -1.52827,4.5323 -2.34683,5.91561c0.01304,1.12824 0.14707,2.08829 0.4998,3.15778c0.64233,1.94706 1.71768,3.47072 3.58169,4.39517c1.98281,-0.43805 2.97202,-1.65551 4.62729,-2.63271l0.16846,0.1553l-0.02124,0.34136c-0.4043,0.71641 -0.99521,1.23651 -1.63887,1.73316c-1.11343,0.85852 -2.35371,1.64819 -3.82603,1.41525c-2.21953,-0.35161 -3.70635,-3.30077 -4.98442,-4.95922c-0.3876,0.49665 -0.66782,1.23944 -0.98584,1.79763c-1.37095,2.40709 -2.77295,5.06031 -5.1,6.66015c-0.86118,-0.04981 -1.70303,-0.1802 -2.55469,-0.31206c4.04883,-2.21956 6.16685,-5.28446 7.97534,-9.45109c-0.5644,-1.3962 -0.97793,-2.90931 -1.43101,-4.34785c-0.49585,-1.5745 -1.10874,-5.20286 -0.33867,-6.67905c0.17798,-0.07486 0.34512,-0.15193 0.51812,-0.23924c0.00762,-0.5305 -0.48076,-1.03741 -0.76172,-1.4715c-0.24448,-2.47228 0.26147,-5.21927 1.1814,-7.51589c1.02744,-2.56517 2.1936,-4.1171 4.79517,-5.21766z" fill="#000000"/><path d="M131.59805,122.85532c0.87217,0.47043 1.38999,2.11335 1.81494,3.02681c-0.21694,1.94296 -0.29326,3.93309 -0.60249,5.86155c-0.32095,2.00215 -2.69224,11.46217 -3.63135,12.66894c-1.13613,-1.72335 -0.77871,-4.19197 -0.99404,-6.19837c0.30571,-0.21419 0.50771,-0.4401 0.75,-0.71949c0.32095,-1.5345 -0.81372,-3.02637 -0.89341,-4.55135c-0.05347,-1.02451 0.01699,-2.06471 0.28696,-3.05655c0.29971,-1.1004 2.57622,-6.23909 3.26938,-7.03154z" fill="#fefefe"/><path d="M186.36475,140.55746c0.28711,0.05846 0.43799,0.21097 0.67383,0.38326c0.53174,1.16706 -0.48633,1.43605 -0.54199,2.45207c-0.05713,1.00518 0.19775,2.05753 0.14502,3.07662c-0.04834,0.94613 -0.40576,1.86326 -0.64014,2.77892c0.49219,1.28779 1.03418,2.55506 1.62158,3.80182c0.49072,-0.25932 0.95361,-0.56258 1.4209,-0.86292c0.8042,-1.7903 2.49316,-4.93578 2.38477,-6.84592c-0.02197,-0.40817 -0.09961,-0.87288 0.20068,-1.20472c0.27979,-0.30708 0.60938,-0.40611 1.01221,-0.44772c0.1582,-0.01641 0.79688,-0.0775 0.9082,0.06256c0.68262,0.86277 0.39258,7.11432 2.17529,8.45338c0.43945,0.33257 1.14404,0.54354 1.69043,0.43366c0.38525,-0.07618 0.71045,-0.31206 0.94043,-0.62411c1.30518,-1.77711 0.63574,-4.65156 0.41016,-6.68682c-0.12305,-1.11344 -1.00781,-1.88948 -1.09424,-2.92909c0.14355,-0.15969 0.26367,-0.25463 0.46875,-0.34048c0.97559,-0.40831 1.77832,0.56068 2.41992,1.15725c1.18506,1.1026 2.24561,1.80026 3.91846,1.93798c0.51416,0.04234 1.00635,0.01626 1.49854,0.19822l0.06738,0.18196c-0.38818,0.37344 -0.91406,0.51248 -1.41064,0.69136c-1.18799,0.27016 -2.17969,0.24379 -3.375,0.11003c0,1.85286 0.0542,3.69297 -0.78662,5.40562c-0.52881,1.07828 -1.43994,2.16829 -2.62939,2.52429c-0.90234,0.26811 -1.84277,0.10255 -2.65723,-0.34722c-1.60254,-0.88343 -3.24463,-3.3667 -3.73389,-5.10426c-0.28711,0.99917 -0.62695,2.03789 -1.14844,2.9433c-0.44238,0.76769 -1.08545,1.53538 -1.98486,1.75221c-0.67969,0.16262 -1.33301,-0.03663 -1.89697,-0.42194c-2.00684,-1.37422 -2.42871,-4.08312 -2.80371,-6.28949c-0.55664,0.90541 -1.19092,1.74928 -1.96289,2.48474c-0.67676,0.64609 -1.96143,1.73902 -2.91357,1.71119l-0.13037,-0.17874c0.37939,-0.94057 1.88086,-1.2453 2.40967,-2.13019c0.67236,-1.12809 1.36523,-2.48781 1.8999,-3.68858c0.53467,-1.19827 0.79834,-2.86756 1.66113,-3.85618c0.46582,-0.53401 1.12793,-0.51702 1.78271,-0.58207z" fill="#000000"/><path d="M116.49229,129.78534c0.63896,-0.00278 1.54087,-0.03106 2.08638,0.32173c-0.26792,2.69497 -0.42202,5.49338 -1.11211,8.11744c1.50469,1.36075 1.76367,0.44655 3.64556,0.44406c0.45088,-0.00059 0.74854,0.05626 1.06816,0.37711c0.00264,0.09581 0.04497,0.19895 0.00806,0.28744c-0.14985,0.35806 -4.33022,0.94804 -5.12637,2.03394c-0.03413,0.5954 0.26396,0.68872 0.33691,1.17483c0.0479,0.31865 -0.121,0.97382 -0.16553,1.32221c-0.33706,2.63036 -1.50117,6.62807 -0.21562,9.11866c0.17124,0.33257 0.4481,0.61532 0.82881,0.68858c1.6188,0.3062 3.84551,-2.54041 5.03877,-3.48244l0.13491,-0.10548c-1.02993,2.11554 -2.42739,3.48391 -4.53984,4.50359l-1.45342,-0.22415c-0.61729,-0.46003 -1.16792,-0.92445 -1.7165,-1.46359c-0.53994,-1.96757 -0.57935,-4.03037 -1.28599,-5.96425c-0.78413,0.82483 -1.23765,1.40646 -1.56797,2.50818c-0.55547,2.21956 -2.09092,4.19446 -3.64731,5.82507c-1.71108,1.7947 -2.95693,2.67519 -5.49229,2.74112c0.76436,-0.7003 1.70991,-1.16912 2.55996,-1.7566c3.03208,-2.0965 6.6665,-8.94271 7.85288,-12.36567c0.43887,-1.2661 0.65684,-2.59799 0.89795,-3.91288c-0.92373,0.09127 -4.11855,0.45549 -4.70566,0.73531c-0.36167,0.17244 -0.13726,0.10461 -0.53892,0.17683c-0.53892,-0.4883 -0.90952,-1.37891 -1.26987,-2.01431c2.2062,0.14695 4.47231,-0.20306 6.68657,-0.26254c1.44141,-3.31923 1.04678,-5.46818 1.69248,-8.82419z" fill="#000000"/><path d="M142.1146,150.61523c0.68818,-0.05567 1.20762,-0.03663 1.83384,0.29155c0.72349,0.37798 1.17583,0.98891 1.37944,1.77711c0.45,1.73902 -0.12891,3.72857 -1.08193,5.19949c-1.1231,1.73316 -2.71436,2.76456 -4.72295,3.1572c0.51826,-1.24237 3.06284,-1.13395 4.35337,-5.75475c-0.43813,0.01905 -0.90864,0.05714 -1.34326,0.0044c-0.70356,-0.0879 -1.43569,-0.58602 -1.82432,-1.17058c-0.30396,-0.4571 -0.42495,-1.03726 -0.28491,-1.57201c0.24243,-0.92738 0.90864,-1.45773 1.69072,-1.93241z" fill="#ed1c24"/><path d="M141.7793,137.94234c1.29741,-0.33418 2.61826,0.45446 2.93994,1.75529c0.32168,1.30082 -0.47944,2.61425 -1.78301,2.92352c-1.28613,0.30517 -2.57798,-0.48288 -2.89541,-1.76627c-0.31729,-1.28339 0.45835,-2.5829 1.73848,-2.91253z" fill="#ed1c24"/></g></svg></svg>