<svg id="svg" version="1.1" viewBox="0 0 300 189.90147783251234" width="300" height="189.90147783251234" xmlns="http://www.w3.org/2000/svg"><svg xmlns="http://www.w3.org/2000/svg"><defs><clipPath id="clip-1"><rect x="0" y="0" transform="scale(0.18473,0.18473)" width="1624" height="1028" fill="none"/></clipPath></defs><g clip-path="url(#clip-1)" fill="none" fill-rule="nonzero" stroke="none" stroke-width="1" stroke-linecap="butt" stroke-linejoin="miter" stroke-miterlimit="10" stroke-dasharray="" stroke-dashoffset="0" font-family="none" font-weight="none" font-size="none" text-anchor="none" style="mix-blend-mode: normal"><path d="M0,0h299.67672c0.15517,0.25484 0.26786,0.50098 0.29187,0.80162c0.33621,4.06344 0.0314,9.61835 0.0314,13.81473l0.00369,28.74898l-0.00185,110.95326l-0.00185,25.97956c0,1.86299 0.28633,7.62118 -0.0702,9.04175c-0.04988,0.19951 -0.14778,0.38608 -0.25308,0.56158h-299.67672z" fill="#fefefe"/><path d="M140.29877,67.79908c6.01792,0.13023 12.06521,0.01607 18.08608,0.01275c5.64107,-0.00314 11.53264,-0.27007 17.02833,1.18005c4.16416,1.07346 8.01225,3.12469 11.22599,5.983c7.64963,6.70179 11.23337,15.98812 11.85406,25.96626c0.65394,10.51958 -2.35899,20.15228 -9.3399,28.07235c-0.1367,0.14575 -0.27709,0.28947 -0.41933,0.43153c-9.01256,9.02512 -20.35437,9.30277 -32.31447,9.28984l-16.07087,-0.01755l0.01755,-44.32075c-0.00018,-8.85961 0.13836,-17.74138 -0.06743,-26.59748z" fill="#ee1c24"/><path d="M153.49914,77.91188l8.34144,-0.01071c5.69575,-0.00443 10.52143,0.19378 14.98559,4.19871c5.158,4.62746 7.46804,11.85776 7.80388,18.59686c0.38719,7.78393 -0.86139,15.52999 -6.23461,21.45961c-0.15055,0.16718 -0.3061,0.32974 -0.46681,0.48732c-7.03762,6.87857 -15.3532,5.71385 -24.40844,5.66084z" fill="#fefefe"/><path d="M89.84815,49.32488c0.48473,-0.01903 1.1032,-0.08239 1.55117,0.13374c0.63307,0.30536 7.34446,8.85647 7.58257,9.58227c0.25493,0.77679 -0.27469,1.71022 -0.60536,2.38393c0.97999,6.22389 0.10345,13.09988 -1.52383,19.17451c-0.68331,2.55092 -1.62839,5.05179 -2.16946,7.63744c-0.68442,3.2697 -0.72229,6.8056 -1.88313,9.95764c-0.59667,1.62026 -1.56817,3.11804 -2.25536,4.70893c-0.7306,1.69101 -1.07863,3.50431 -1.72445,5.22063c-0.44058,1.17063 -1.57001,2.76078 -1.60382,3.96872c-0.14206,5.05456 2.64126,11.09187 6.01108,14.75708c1.0173,1.10634 2.36047,2.20419 3.93344,2.25037c3.80339,0.11195 8.95197,-4.70062 11.58048,-7.22531c0.17494,0.15702 0.34803,0.31626 0.5189,0.47752c0.58929,0.55825 1.35129,1.29366 1.31878,2.17685c-0.04304,1.16527 -1.17155,2.31576 -1.94631,3.10216c-3.01829,3.06336 -7.38842,6.60018 -11.92592,6.5819c-8.12328,-0.03307 -9.47014,-6.45277 -14.1907,-11.21693l-0.18214,-0.28374l-0.3133,-0.04711c-2.72586,5.14877 -8.31539,14.48922 -12.44631,18.26675c-2.96268,2.70961 -5.43528,2.25296 -9.13356,2.08818c-0.283,-0.9822 -0.69107,-1.95536 -1.04446,-2.91613c6.2734,-3.33676 11.50363,-8.12549 15.18344,-14.24612c1.67863,-2.792 3.08922,-5.76336 4.68436,-8.60616c-1.01619,-2.6189 -1.63615,-5.3383 -2.45302,-8.01743c-0.60129,-1.97217 -1.47746,-3.85474 -2.04994,-5.83615c-1.13387,-3.92568 -0.76459,-7.90105 -0.72137,-11.91724c0.0181,-1.67956 -0.23405,-3.75591 0.13781,-5.383c0.46903,0.21872 0.90924,0.48307 1.43922,0.45203l0.08719,-0.32863c-0.60129,-0.64563 -1.18467,-1.30733 -1.74975,-1.98491c-0.93381,-4.50868 0.99975,-14.70425 2.55222,-18.94083c1.2883,-3.51521 3.86028,-9.77956 6.67685,-12.21466c1.90899,-1.65037 4.39304,-2.69963 6.66466,-3.75628z" fill="#000000"/><path d="M90.77272,54.76459c1.48855,0.99865 1.73627,3.74594 2.33479,5.31096c0.26546,0.69403 0.70216,1.3585 1.08547,1.99433c-1.22512,5.40887 -1.0306,11.09575 -1.87482,16.56521c-0.31478,2.03922 -1.58719,3.63565 -2.0758,5.57623c-0.41564,1.65148 -0.2056,3.48916 -0.5806,5.1907c-0.7234,3.28356 -2.24353,6.24273 -3.17328,9.44871c-0.55899,1.92802 -1.04002,3.9 -1.48799,5.85647c-0.26897,1.17506 -0.41878,2.41108 -0.85603,3.53534l-0.21262,0.07629l-0.26619,-0.52648c-1.16509,-3.4439 -0.45296,-9.11047 -1.02414,-13.03615c0.73208,-0.65413 1.2545,-1.28128 1.77986,-2.11607c0.17752,-2.68467 -0.09495,-5.86626 -0.96225,-8.42087c-0.31644,-0.93233 -1.71521,-2.24797 -1.60326,-3.14852c0.30462,-0.03584 0.52131,0.04323 0.81041,0.13855l0.121,0.04083c0.17919,-0.34895 -0.92235,-5.99002 -0.51262,-7.83972c0.77328,-3.49009 3.2093,-6.80357 4.6947,-10.04594c1.32284,-2.88732 2.04033,-5.92223 3.80339,-8.59988z" fill="#fefefe"/><path d="M221.40517,98.92186c0.72229,-0.05486 1.64409,-0.20597 2.34606,-0.01459c0.83128,0.22685 1.73091,0.77217 2.14655,1.54766c0.35099,0.65468 0.57266,1.62284 0.35837,2.34458c0.4064,1.25209 -1.19335,3.62161 -1.48707,4.9476c-0.62993,2.84501 0.60037,6.05246 0.15517,9.00517c-0.24384,1.62913 -1.37623,3.01145 -1.54988,4.67919c-0.30296,2.92001 3.75924,7.7141 3.19581,9.79969c0.83313,-0.50357 1.55911,-1.00844 2.17057,-1.77839c2.32943,-2.93498 5.68781,-11.25037 6.27709,-14.95622c0.26601,-1.66441 -0.29372,-3.883 0.36392,-5.42734c0.33251,-0.78067 1.14347,-1.30807 1.9101,-1.59975c1.41502,-0.53904 3.95135,-0.78898 5.3516,-0.13929c0.66687,0.30961 0.97352,0.90887 1.00493,1.62284c0.03695,0.84218 -0.28264,1.68288 -0.21059,2.52728c0.31589,3.7391 2.03941,12.47697 3.37315,16.06995c0.28079,0.75314 0.91441,1.26281 1.1915,2.00228c0.65579,0.17642 1.30788,0.33824 1.9803,0.43744c0.98461,0.14575 2.39039,0.33417 3.21983,-0.35782c1.55172,-1.29772 2.03756,-5.1798 2.10406,-7.12463c0.09236,-2.758 -0.50985,-9.79323 -1.36515,-12.35413c-0.46552,-1.38898 -2.21121,-4.19889 -3.21983,-5.2875c0.53756,-0.33399 0.93288,-0.8819 1.45751,-1.25413c6.72414,-4.77617 7.63485,3.16663 12.66687,5.64957c3.17919,1.56853 7.05665,1.39618 10.49261,1.97531c0.02032,0.03639 0.04249,0.07204 0.06096,0.10917c0.22722,0.44021 0.15333,1.45142 -0.01847,1.90862c-0.21059,0.56361 -0.50062,0.66207 -1.01047,0.87765c-2.44027,2.09317 -8.53633,2.10757 -11.60653,2.03091c0.13855,0.22426 0.23276,0.45499 0.26786,0.71749c0.13855,1.03448 0.00185,2.17851 -0.06466,3.21946c-0.25862,4.03356 -0.86823,8.3649 -3.43966,11.63368c-1.88424,2.39723 -3.87931,4.61989 -7.07143,4.979c-3.87192,0.43356 -7.71798,-1.01804 -10.33929,-3.90259c-1.13793,-1.27112 -2.02833,-2.8282 -2.99631,-4.23417c-0.75924,-1.10486 -1.71983,-2.62426 -2.77648,-3.42986c-0.03695,-0.02771 -0.07389,-0.05431 -0.11084,-0.08147c0.00369,0.02679 0.00739,0.05339 0.00924,0.08017c0.133,1.696 -2.02833,5.0274 -3.14224,6.30499c-2.13547,2.44858 -4.57574,3.65653 -7.80296,3.87414c-0.65579,-1.15622 -4.56835,-3.18861 -6.12746,-5.47223c-1.61638,-2.36786 -2.37562,-4.83732 -3.1016,-7.57962c-0.27155,-1.02672 -0.46182,-2.20548 -0.96983,-3.14335c-0.02217,-0.04101 -0.04618,-0.08128 -0.06835,-0.12211c-0.06281,0.32568 -0.15702,0.62143 -0.33436,0.90314c-2.867,4.55025 -7.76232,7.48633 -12.89409,8.63701c0.03695,-0.06576 0.05727,-0.09661 0.09052,-0.17106c0.36761,-0.81392 0.07574,-3.01663 -0.21983,-3.85179c6.33067,-1.65406 6.79064,-5.27956 9.50985,-10.21718c1.25985,-2.28676 2.74692,-4.36829 3.61515,-6.85862c0.72783,-2.09372 0.9218,-4.75954 2.15948,-6.60443c0.98276,-1.46546 2.85591,-1.63264 4.44828,-1.92174z" fill="#000000"/><path d="M48.34748,70.55265c1.72408,-0.02623 5.44156,0.16792 6.73633,1.39397c0.32032,0.30314 0.47346,0.65837 0.4705,1.09748c-0.00369,0.56195 -0.54791,0.99107 -0.9194,1.36016c-0.04692,1.34889 0.55511,2.7024 0.46127,3.94748c-0.08202,1.08935 -0.65043,2.20936 -0.81466,3.31071c-0.31995,2.14581 -0.09975,4.37198 -0.42414,6.51244c-0.23479,1.54914 -0.93621,3.01256 -1.23695,4.55745c-0.05154,0.26435 0.07186,0.33768 0.21447,0.55179c1.35351,0.76884 4.079,0.36687 5.64181,0.358c2.98116,-0.017 4.54637,0.51078 6.66576,2.60579c-0.35154,0.45148 -0.68664,0.98682 -1.15437,1.32506c-2.79366,2.02149 -7.56964,1.80887 -10.75936,3.49397c-0.67703,0.35764 -1.55413,0.96004 -1.74809,1.754c-0.17863,0.73153 0.34507,1.33023 0.73559,1.89126c-0.48879,2.96656 -0.47106,5.99224 -0.93842,8.96028c-0.40585,2.57734 -1.50757,5.0734 -1.57943,7.69489c-0.07352,2.67839 0.23276,9.12562 2.11977,11.04717c3.0835,3.13984 10.98251,-7.49132 13.06607,-7.47211c0.3569,0.20837 0.46792,0.29427 0.62309,0.70567c0.24957,0.66096 0.19618,1.80351 -0.13781,2.42531c-0.56139,1.04557 -1.55394,2.05197 -2.35142,2.91724c-2.81933,3.05874 -5.34791,5.0952 -9.28947,6.48048c-1.35739,-0.45425 -2.9274,-0.54846 -4.34612,-0.74612c-1.25413,-1.36422 -2.96435,-2.21195 -4.11853,-3.70271c-1.44255,-1.86299 -2.58861,-11.71607 -3.08405,-14.50807c-2.64089,2.14637 -2.93516,5.23725 -3.93307,8.29674c-1.21441,3.3375 -5.55665,8.90062 -8.09871,11.47445c-5.17703,5.24206 -7.41392,8.00727 -15.05095,8.06158l-1.11683,-1.62284c1.7322,-2.61207 4.9527,-3.8298 7.44081,-5.57494c4.41521,-3.09698 12.32882,-16.21219 15.05376,-21.41268c1.58849,-3.03159 3.0436,-6.33473 4.20813,-9.5564c1.04612,-2.89415 1.53103,-5.97691 2.06767,-8.99871c-1.73498,0.53701 -3.53461,1.14865 -5.35142,1.32488c-0.72248,0.07001 -2.9577,-0.11453 -3.45443,0.08534c-0.79027,0.31792 -1.19039,1.25154 -2.19994,1.42888c-0.72137,0.12672 -1.40653,-0.17291 -1.98214,-0.5843c-1.09711,-0.78399 -3.58966,-4.46416 -3.75296,-5.78756c-0.06613,-0.53553 0.15203,-0.78565 0.44298,-1.1928c1.46324,-0.38257 3.68664,0.0641 5.25628,-0.00868c3.95209,-0.18362 7.83621,-0.78602 11.80899,-0.83461c1.06367,-2.20493 2.14544,-4.38491 2.6298,-6.80413c1.06312,-5.31188 0.0351,-11.1303 2.19957,-16.25579z" fill="#000000"/><path d="M113.61687,125.39409c4.33116,0.2117 8.75874,0.03602 13.10006,0.03602c0.01995,3.61589 0.42506,7.74698 -0.18307,11.29674c-0.5008,2.92334 -5.65308,12.0678 -7.304,15.37666l-1.03929,1.8399c-1.47137,0.09514 -2.98467,0.01016 -4.46028,-0.00536c1.74828,-5.14618 4.07069,-10.14218 6.08424,-15.1936c-2.05326,0.05283 -4.12445,-0.00868 -6.17937,-0.01829z" fill="#ee1c24"/><path d="M113.63978,89.74212c4.34945,0.12802 8.72937,0.03251 13.08103,0.01182l0.02161,12.94692c-4.34224,-0.08165 -8.70314,0.00868 -13.04723,0.01736c-0.16441,-4.31416 -0.06133,-8.65862 -0.05542,-12.97611z" fill="#ee1c24"/></g></svg></svg>